<?xml version="1.0" encoding="utf-8"?>
<!-- Generator: Adobe Illustrator 17.0.0, SVG Export Plug-In . SVG Version: 6.00 Build 0)  -->
<!DOCTYPE svg PUBLIC "-//W3C//DTD SVG 1.1//EN" "http://www.w3.org/Graphics/SVG/1.1/DTD/svg11.dtd">
<svg version="1.1" id="Layer_1" xmlns="http://www.w3.org/2000/svg" xmlns:xlink="http://www.w3.org/1999/xlink" x="0px" y="0px"
	 width="18px" height="18px" viewBox="-0.5 0.5 18 18" enable-background="new -0.5 0.5 18 18" xml:space="preserve">
<g id="Captions">
</g>
<path fill-rule="evenodd" clip-rule="evenodd" d="M13.5,0.5h-10c-2.209,0-4,1.791-4,4v5c0,2.209,1.791,4,4,4v5l6-5h4
	c2.209,0,4-1.791,4-4v-5C17.5,2.291,15.709,0.5,13.5,0.5z M5,3.5c0.828,0,1.5,0.672,1.5,1.5S5.828,6.5,5,6.5S3.5,5.828,3.5,5
	S4.172,3.5,5,3.5z M12.236,9.913C10.94,11.076,9.651,11.5,8.538,11.5H8.526c-2.239,0-3.959-1.579-3.959-1.631v0.002
	c0-0.289-0.184-0.787,0.059-1.11C4.87,8.438,5.398,8.412,5.67,8.701c0,0,0,0,0.004,0.004C5.68,8.711,5.691,8.722,5.707,8.738
	c0.031,0.03,0.081,0.076,0.148,0.134c0.134,0.115,0.336,0.272,0.592,0.43C6.961,9.62,7.684,9.929,8.526,9.929
	c0.843-0.003,1.818-0.295,2.915-1.271c0.292-0.26,0.707-0.192,0.925,0.155C12.586,9.161,12.529,9.653,12.236,9.913z M12,6.5
	c-0.828,0-1.5-0.672-1.5-1.5s0.672-1.5,1.5-1.5s1.5,0.672,1.5,1.5S12.828,6.5,12,6.5z"/>
</svg>
