<?xml version="1.0" encoding="UTF-8" standalone="no"?>
<!-- Generator: Adobe Illustrator 19.2.0, SVG Export Plug-In . SVG Version: 6.00 Build 0)  -->

<svg
   xmlns:dc="http://purl.org/dc/elements/1.1/"
   xmlns:cc="http://creativecommons.org/ns#"
   xmlns:rdf="http://www.w3.org/1999/02/22-rdf-syntax-ns#"
   xmlns:svg="http://www.w3.org/2000/svg"
   xmlns="http://www.w3.org/2000/svg"
   xmlns:sodipodi="http://sodipodi.sourceforge.net/DTD/sodipodi-0.dtd"
   xmlns:inkscape="http://www.inkscape.org/namespaces/inkscape"
   version="1.1"
   id="Layer_1"
   x="0px"
   y="0px"
   viewBox="0 0 16 16"
   xml:space="preserve"
   inkscape:version="0.91 r13725"
   sodipodi:docname="endless-symbolic.svg"
   width="16"
   height="16"><metadata
     id="metadata3512"><rdf:RDF><cc:Work
         rdf:about=""><dc:format>image/svg+xml</dc:format><dc:type
           rdf:resource="http://purl.org/dc/dcmitype/StillImage" /><dc:title /></cc:Work></rdf:RDF></metadata><defs
     id="defs3510" /><sodipodi:namedview
     pagecolor="#ffffff"
     bordercolor="#666666"
     borderopacity="1"
     objecttolerance="10"
     gridtolerance="10"
     guidetolerance="10"
     inkscape:pageopacity="0"
     inkscape:pageshadow="2"
     inkscape:window-width="1920"
     inkscape:window-height="1004"
     id="namedview3508"
     showgrid="false"
     inkscape:zoom="35.881542"
     inkscape:cx="12.200836"
     inkscape:cy="9.0338384"
     inkscape:window-x="0"
     inkscape:window-y="0"
     inkscape:window-maximized="1"
     inkscape:current-layer="g3488" /><style
     type="text/css"
     id="style3484">
	.st0{fill:#EA5B0C;}
	.st1{fill:#4A4A49;}
</style><g
     id="g3486"
     transform="matrix(0.06157351,0,0,0.06157525,21.762567,-22.138237)"><g
       id="g3488"
       transform="translate(-640.70422,264.85805)"><path
         class="st0"
         d="m 522.14191,207.18264 c -18.18269,-10.42966 -53.53278,2.49204 -85.19097,18.55188 -8.12221,-3.78421 -16.15213,-7.56843 -23.99745,-11.16805 23.16677,-12.9217 41.99555,-25.65881 46.51814,-28.79694 3.04583,-2.12286 3.78422,-6.27626 1.75366,-9.32209 -2.12285,-3.04583 -6.27625,-3.78422 -9.32209,-1.66136 -15.13685,10.42966 -34.61171,22.52068 -54.27116,32.85805 -37.65755,-16.42903 -69.77722,-26.67409 -86.48314,-16.98281 -4.79949,2.76893 -10.70656,8.5837 -11.53724,20.49013 -1.38447,18.27499 6.09166,26.4895 12.55252,30.18142 18.18268,10.42966 53.53278,-2.49205 85.19096,-18.55188 8.12222,3.78421 16.15214,7.56842 23.99746,11.16804 -23.16678,12.92171 -41.99555,25.65882 -46.51815,28.79695 -3.04583,2.12285 -3.78421,6.27626 -1.66136,9.32209 2.12285,3.04583 6.27626,3.78421 9.32209,1.66136 15.13686,-10.42966 34.61171,-22.52069 54.27117,-32.85805 37.65754,16.42902 69.77721,26.67409 86.48314,16.98281 4.79949,-2.76894 10.70655,-8.5837 11.53723,-20.49013 1.29217,-18.27499 -6.09166,-26.4895 -12.64481,-30.18142 z m -203.33229,22.70529 c -1.75366,-1.01528 -6.92234,-3.96881 -5.90706,-17.6289 0.46149,-6.64545 3.04583,-8.8606 4.98409,-9.96818 4.0611,-2.39974 10.42966,-2.67664 18.36728,-1.38447 12.27562,1.93826 28.33546,7.56843 45.68746,14.67537 -27.04328,12.82941 -51.96372,20.67473 -63.13177,14.30618 z m 202.59391,6.46085 c -0.46149,6.64545 -3.04583,8.8606 -4.98409,9.96817 -4.06111,2.39975 -10.42966,2.67664 -18.36728,1.38447 -12.27562,-1.93825 -28.33546,-7.56843 -45.68747,-14.67537 27.04329,-12.8294 52.05602,-20.67473 63.13177,-14.30617 1.75366,1.01528 6.92234,3.96881 5.90707,17.6289 z"
         id="path3490"
         inkscape:connector-curvature="0"
         style="fill:#bebebe;fill-opacity:1" /></g></g></svg>