<?xml version="1.0" encoding="utf-8"?>
<!-- Generator: Adobe Illustrator 16.0.0, SVG Export Plug-In . SVG Version: 6.00 Build 0)  -->
<!DOCTYPE svg PUBLIC "-//W3C//DTD SVG 1.1//EN" "http://www.w3.org/Graphics/SVG/1.1/DTD/svg11.dtd">
<svg version="1.1" id="Google_x2B_" xmlns="http://www.w3.org/2000/svg" xmlns:xlink="http://www.w3.org/1999/xlink" x="0px"
	 y="0px" width="57px" height="21px" viewBox="0 0 57 21" enable-background="new 0 0 57 21" xml:space="preserve">
<g>
	<path d="M55.475,8.059c0.288-0.119,0.31-0.14,0.204-0.444c-0.606-1.733-2.893-2.67-4.841-1.858
		c-1.536,0.641-2.648,2.265-2.648,4.081c0,2.448,1.767,4.625,4.166,4.625c1.101,0,1.884-0.152,2.579-0.594
		c0.15-0.139,0.991-0.811,1-0.956c0-0.033-0.118,0.071-0.302,0.172c-0.542,0.286-1.354,0.396-1.993,0.407
		c-1.29,0.023-2.319-0.855-2.993-1.9c-0.432-0.671-0.71-1.438-0.781-2.263C49.76,8.061,50.07,6.603,51.5,6.245
		c0.954-0.238,1.855,0.296,2.206,1.213c0.158,0.416,0.063,0.633-0.322,0.792L49.94,9.688l1.174,0.075
		C52.512,9.182,54.077,8.639,55.475,8.059L55.475,8.059z"/>
	<path d="M44.873,1c0.874,0,1.698,0,2.572,0c-0.358,0.232-0.479,0.328-0.633,0.571c-0.109,0.175-0.138,0.505-0.158,0.805
		c-0.15,3.432-0.06,6.891-0.082,10.325c0.016,0.935,0.382,0.826,1.599,0.791c-0.183,0.154-0.48,0.462-0.711,0.594
		c-1.098,0-2.146-0.023-3.243-0.023c0.413-0.427,0.624-0.702,0.596-1.77c0.022-3.587-0.12-7.03,0.099-10.485
		c-0.514,0.015-0.981,0.007-1.498,0.022C43.903,1.578,44.363,1.224,44.873,1L44.873,1z"/>
	<path d="M42.264,14.04c-0.566-0.423-1.545-1.006-1.483-1.808c0.021-0.275,0.216-0.561,0.602-0.788
		c0.679-0.397,1.141-0.921,1.37-1.529c0.241-0.644,0.208-1.343-0.03-1.975c-0.223-0.593-0.629-1.125-1.157-1.494h1.252l1.1-0.711
		c-1.57-0.012-3.048-0.013-4.649-0.013c-1.537,0-2.923,0.743-3.545,2.082c-0.288,0.616-0.402,1.404-0.218,2.157
		c0.363,1.484,1.913,2.466,3.417,2.239c0.165-0.025,0.218-0.078,0.133,0.075c-0.333,0.583-0.09,1.457,0.562,1.885
		c-0.433-0.029-0.893-0.041-1.409,0.021c-1.839,0.215-3.876,1.16-3.77,3.145c0.082,1.536,1.634,2.664,4.096,2.674
		c1.982-0.006,3.848-0.634,4.633-2.039C43.988,16.491,43.504,14.969,42.264,14.04z M37.262,9.529
		c-0.428-1.68,0.015-2.747,1.05-3.068C39.539,6.08,40.851,7.187,41.149,9c0.197,1.188-0.105,2.314-1.18,2.612
		C38.87,11.916,37.653,11.061,37.262,9.529z M42.138,17.357c-0.106,0.931-0.999,1.664-2.527,1.756
		c-1.633,0.099-3.83-0.547-3.422-2.694c0.216-1.143,1.735-1.735,2.988-1.776c0.349-0.011,0.701,0.017,1.049,0.028
		c0.186,0.137,0.377,0.268,0.576,0.394C41.882,15.749,42.227,16.586,42.138,17.357z"/>
	<path d="M34.561,9.747c-0.138-2.297-1.678-4.259-4.628-4.259c-2.553,0-4.637,1.991-4.637,4.433c0,2.792,2.425,4.704,5.203,4.41
		C32.809,14.083,34.698,12.036,34.561,9.747z M30.814,13.638c-1.545,0.358-3.185-0.924-3.593-3.104
		c-0.45-2.39,0.293-3.964,1.753-4.351c1.728-0.458,3.49,1.287,3.748,3.858C32.891,11.725,32.326,13.289,30.814,13.638z"/>
	<path d="M24.503,9.747c-0.139-2.297-1.697-4.259-4.682-4.259c-2.583,0-4.692,1.991-4.692,4.433c0,2.792,2.454,4.704,5.265,4.41
		C22.731,14.083,24.642,12.036,24.503,9.747z M20.713,13.638c-1.564,0.358-3.223-0.924-3.637-3.104
		c-0.455-2.39,0.296-3.964,1.773-4.351c1.749-0.458,3.532,1.287,3.793,3.858C22.812,11.725,22.241,13.289,20.713,13.638z"/>
	<path d="M12.403,4.26l1.342-1.368c-2.278-1.886-6.184-2.133-8.773-0.825c-2.252,1.139-3.889,3.4-3.969,5.924
		c-0.083,2.658,1.46,4.76,3.027,5.817c2.588,1.744,7.074,1.356,9.777-0.007l-0.001-0.254l0,0v-2.786l0.629-0.736h-3.937L9.04,10.846
		l2.832-0.085c0,0.792,0,1.661,0,2.455c0,0.349,0.005,0.405-0.569,0.59c-0.809,0.211-1.721,0.253-2.554,0.184
		c-2.827-0.237-4.983-2.47-5.493-5.256C2.771,6.09,4.018,3.589,6.126,2.557c1.029-0.504,2.265-0.74,3.603-0.312
		c0.839,0.269,1.602,0.752,2.266,1.419l-0.463,0.84L12.403,4.26L12.403,4.26z"/>
</g>
</svg>
