<?xml version="1.0" encoding="utf-8"?>
<!-- Generator: Adobe Illustrator 18.0.0, SVG Export Plug-In . SVG Version: 6.00 Build 0)  -->
<!DOCTYPE svg PUBLIC "-//W3C//DTD SVG 1.1//EN" "http://www.w3.org/Graphics/SVG/1.1/DTD/svg11.dtd">
<svg version="1.1" id="Layer_1" xmlns="http://www.w3.org/2000/svg" xmlns:xlink="http://www.w3.org/1999/xlink" x="0px" y="0px"
	 viewBox="0 0 18 18" enable-background="new 0 0 18 18" xml:space="preserve">
<path d="M9,0C4,0,0,4,0,9s4,9,9,9s9-4,9-9S14,0,9,0z M10,15H8v-2h2V15z M10.7,8.7C10.2,9.2,10,9.5,10,10v2H8v-2
	c0-1.4,0.7-2.1,1.3-2.7C9.8,6.8,10,6.6,10,6c0-1-1-1-1-1S8,5,8,6H6c0-2,1.3-3,3-3s3,1.3,3,3C12,7.4,11.2,8.2,10.7,8.7z"/>
</svg>
