<svg xmlns="http://www.w3.org/2000/svg" xmlns:xlink="http://www.w3.org/1999/xlink" version="1.1" x="0px" y="0px" viewBox="0 0 32 40" style="enable-background:new 0 0 32 32;" xml:space="preserve"><g><path d="M4,17c-0.552,0-1-0.448-1-1C3,8.832,8.832,3,16,3c3.729,0,7.282,1.604,9.75,4.401c0.365,0.414,0.326,1.046-0.088,1.412   c-0.413,0.365-1.045,0.326-1.412-0.088C22.162,6.357,19.154,5,16,5C9.935,5,5,9.935,5,16C5,16.552,4.552,17,4,17z"/><path d="M16,29c-3.728,0-7.281-1.604-9.75-4.4c-0.366-0.414-0.326-1.047,0.088-1.412c0.414-0.366,1.046-0.325,1.411,0.088   C9.839,25.643,12.846,27,16,27c6.065,0,11-4.935,11-11c0-0.552,0.447-1,1-1s1,0.448,1,1C29,23.168,23.168,29,16,29z"/><path d="M4,17c-0.26,0-0.516-0.101-0.708-0.293l-3-3c-0.391-0.391-0.391-1.023,0-1.414s1.023-0.391,1.414,0l2.49,2.49l3.355-1.678   c0.495-0.247,1.095-0.047,1.342,0.447c0.247,0.494,0.047,1.095-0.447,1.342l-4,2C4.305,16.965,4.152,17,4,17z"/><path d="M31,20c-0.256,0-0.512-0.098-0.707-0.293l-2.49-2.49l-3.355,1.678c-0.493,0.245-1.094,0.047-1.342-0.447   c-0.247-0.494-0.047-1.095,0.447-1.342l4-2c0.385-0.191,0.849-0.117,1.154,0.188l3,3c0.391,0.391,0.391,1.023,0,1.414   C31.512,19.902,31.256,20,31,20z"/><path d="M18.498,21h-4.997C12.122,21,11,19.878,11,18.498v-4.997C11,12.122,12.122,11,13.501,11h4.997   C19.878,11,21,12.122,21,13.501v4.997C21,19.878,19.878,21,18.498,21z M13.501,13C13.225,13,13,13.225,13,13.501v4.997   C13,18.774,13.225,19,13.501,19h4.997C18.774,19,19,18.774,19,18.498v-4.997C19,13.225,18.774,13,18.498,13H13.501z"/></g><text x="0" y="47" fill="#000000" font-size="5px" font-weight="bold" font-family="'Helvetica Neue', Helvetica, Arial-Unicode, Arial, Sans-serif">Created by ✦ Shmidt Sergey ✦</text><text x="0" y="52" fill="#000000" font-size="5px" font-weight="bold" font-family="'Helvetica Neue', Helvetica, Arial-Unicode, Arial, Sans-serif">from the Noun Project</text></svg>