<svg id="Layer_1" data-name="Layer 1" xmlns="http://www.w3.org/2000/svg" viewBox="0 0 20.38 22.19"><defs><style>.cls-1{fill:#333;}</style></defs><title>flip_icon</title><path class="cls-1" d="M14.43,8.25q0,2,0,3.93a1.44,1.44,0,0,1-.07.52.79.79,0,0,1-1.5,0,1.53,1.53,0,0,1-.07-.53q0-3.69,0-7.39a.26.26,0,0,0-.21-.29l-4-1.36c-.34-.12-.37-.1-.37.26q0,3.19,0,6.37a.86.86,0,0,1-.56.91.76.76,0,0,1-1-.44,1.5,1.5,0,0,1-.09-.55q0-3.72,0-7.44s0-.07,0-.1c0-.8.45-1.23,1.34-.92,1.88.66,3.77,1.28,5.66,1.91a1,1,0,0,1,.81,1.13Q14.44,6.26,14.43,8.25Z"/><path class="cls-1" d="M5.46,15.85c-.55,0-1.23,0-1.9-.06A3.46,3.46,0,0,1,4.28,8.9h.57a.81.81,0,0,1,.78.71.79.79,0,0,1-.67.84,6.28,6.28,0,0,1-.93,0,1.88,1.88,0,0,0-.39,3.71,2.91,2.91,0,0,0,.67.08l2.9,0c.08,0,.19,0,.23-.06s-.08-.12-.13-.18l-.52-.56a.77.77,0,0,1,0-1.12.81.81,0,0,1,1.14,0Q9,13.5,10,14.6A.76.76,0,0,1,10,15.71l-.72.73L8,17.71a.83.83,0,0,1-1.16.08.81.81,0,0,1,0-1.16c.17-.19.36-.36.54-.55s.15-.1.11-.18-.13,0-.19,0Z"/><path class="cls-1" d="M14.08,15.89H12a.84.84,0,0,1-.91-.76.83.83,0,0,1,.83-.81c.36,0,.73,0,1.09,0,1,0,2,0,3,0a1.91,1.91,0,0,0,2-1.78,1.86,1.86,0,0,0-1.84-2,.86.86,0,0,1-.87-.85A.83.83,0,0,1,16.21,9a3.41,3.41,0,0,1,.61.08,3.45,3.45,0,0,1-.46,6.83c-.76.06-1.52,0-2.28,0Z"/><path class="cls-1" d="M14.35,18.76c0,.3,0,.59,0,.89a.76.76,0,0,1-.73.8l-2.68.3-3.19.36a2.84,2.84,0,0,1-.44,0,.78.78,0,0,1-.12-1.56c.54-.08,1.08-.13,1.62-.19l3.65-.4c.22,0,.32-.1.3-.33s0-.56,0-.84a.79.79,0,0,1,1.59,0C14.36,18.13,14.35,18.45,14.35,18.76Z"/></svg>