<?xml version="1.0" encoding="utf-8"?>
<!-- Generator: Adobe Illustrator 17.0.0, SVG Export Plug-In . SVG Version: 6.00 Build 0)  -->
<!DOCTYPE svg PUBLIC "-//W3C//DTD SVG 1.1//EN" "http://www.w3.org/Graphics/SVG/1.1/DTD/svg11.dtd">
<svg version="1.1" id="Layer_1" xmlns="http://www.w3.org/2000/svg" xmlns:xlink="http://www.w3.org/1999/xlink" x="0px" y="0px"
	 width="18px" height="18px" viewBox="-0.5 0.5 18 18" enable-background="new -0.5 0.5 18 18" xml:space="preserve">
<g id="Captions">
</g>
<path d="M17.5,10.5v-2l-2.481-0.878l-0.588-1.411l1.128-2.38l-1.451-1.449l-2.326,1.184l-1.416-0.587L9.5,0.5h-2L6.622,2.982
	L5.211,3.568L2.828,2.444L1.381,3.892l1.181,2.329L1.979,7.63L-0.5,8.517V10.5l2.481,0.879l0.584,1.41L1.44,15.173l1.45,1.446
	l2.327-1.18l1.415,0.582L7.518,18.5H9.5l0.879-2.481l1.411-0.589l2.377,1.129l1.452-1.45l-1.181-2.327l0.585-1.416L17.5,10.5z
	 M8.5,12.875c-1.865,0-3.375-1.512-3.375-3.376c0-1.864,1.51-3.374,3.375-3.374c1.866,0,3.375,1.51,3.375,3.374
	C11.875,11.363,10.366,12.875,8.5,12.875z"/>
</svg>
