<?xml version="1.0" encoding="utf-8"?>
<!-- Generator: Adobe Illustrator 16.0.0, SVG Export Plug-In . SVG Version: 6.00 Build 0)  -->
<!DOCTYPE svg PUBLIC "-//W3C//DTD SVG 1.1//EN" "http://www.w3.org/Graphics/SVG/1.1/DTD/svg11.dtd">
<svg version="1.1" id="Google_x2B_" xmlns="http://www.w3.org/2000/svg" xmlns:xlink="http://www.w3.org/1999/xlink" x="0px"
	 y="0px" width="16px" height="16px" viewBox="0 0 16 16" enable-background="new 0 0 16 16" xml:space="preserve">
<path d="M15,8.764V7.171L13.068,6.54l-0.455-1.099L13.49,3.59l-1.129-1.126l-1.811,0.919L9.452,2.928L8.762,1H7.17L6.539,2.931
	L5.441,3.386L3.589,2.511L2.463,3.637l0.919,1.811L2.928,6.546L1,7.237v1.595l1.93,0.63l0.454,1.099L2.51,12.412l1.126,1.127
	l1.811-0.921l1.099,0.457L7.237,15H8.83l0.631-1.932l1.1-0.453l1.85,0.875l1.128-1.127l-0.92-1.812l0.456-1.098L15,8.764z M8,10.23
	c-1.232,0-2.231-1-2.231-2.23c0-1.232,0.999-2.23,2.231-2.23c1.232,0,2.23,0.999,2.23,2.23C10.23,9.23,9.232,10.23,8,10.23z"/>
</svg>
