<svg id="Layer_1" data-name="Layer 1" xmlns="http://www.w3.org/2000/svg" viewBox="0 0 16 16"><title>window_picker_icon</title><path d="M1.27,8.72V4H9.21v0.5h1.3V3.8A1.43,1.43,0,0,0,9.08,2.38H1.4A1.43,1.43,0,0,0,0,3.8H0V8.72A1.43,1.43,0,0,0,1.4,10.15H4.47V8.85H1.4A0.13,0.13,0,0,1,1.27,8.72Z" style="fill:#bebebe"/><path d="M14.55,5.82H6.91A1.43,1.43,0,0,0,5.48,7.25v4.94a1.43,1.43,0,0,0,1.43,1.41h7.64A1.43,1.43,0,0,0,16,12.17h0V7.27a1.43,1.43,0,0,0-1.41-1.44h0Zm0,6.48H6.91a0.13,0.13,0,0,1-.13-0.13V7.49h7.94v4.7a0.13,0.13,0,0,1-.14.11h0Z" style="fill:#bebebe"/></svg>