<?xml version="1.0" encoding="UTF-8" standalone="no"?>
<!-- Created with Inkscape (http://www.inkscape.org/) -->

<svg
   xmlns:dc="http://purl.org/dc/elements/1.1/"
   xmlns:cc="http://creativecommons.org/ns#"
   xmlns:rdf="http://www.w3.org/1999/02/22-rdf-syntax-ns#"
   xmlns:svg="http://www.w3.org/2000/svg"
   xmlns="http://www.w3.org/2000/svg"
   xmlns:sodipodi="http://sodipodi.sourceforge.net/DTD/sodipodi-0.dtd"
   xmlns:inkscape="http://www.inkscape.org/namespaces/inkscape"
   sodipodi:docname="show-windows-symbolic.svg"
   height="16"
   id="svg7384"
   inkscape:version="0.91 r13725"
   version="1.1"
   width="16">
  <metadata
     id="metadata90">
    <rdf:RDF>
      <cc:Work
         rdf:about="">
        <dc:format>image/svg+xml</dc:format>
        <dc:type
           rdf:resource="http://purl.org/dc/dcmitype/StillImage" />
        <dc:title>Gnome Symbolic Icon Theme</dc:title>
      </cc:Work>
    </rdf:RDF>
  </metadata>
  <sodipodi:namedview
     inkscape:bbox-nodes="false"
     inkscape:bbox-paths="true"
     bordercolor="#666666"
     borderopacity="1"
     inkscape:current-layer="layer9"
     inkscape:cx="16.12577"
     inkscape:cy="8.7442193"
     gridtolerance="10"
     inkscape:guide-bbox="true"
     guidetolerance="10"
     id="namedview88"
     inkscape:object-nodes="false"
     inkscape:object-paths="false"
     objecttolerance="10"
     pagecolor="#3a3b39"
     inkscape:pageopacity="1"
     inkscape:pageshadow="2"
     showborder="false"
     showgrid="false"
     showguides="true"
     inkscape:snap-bbox="true"
     inkscape:snap-bbox-midpoints="false"
     inkscape:snap-global="true"
     inkscape:snap-grids="true"
     inkscape:snap-nodes="true"
     inkscape:snap-others="false"
     inkscape:snap-to-guides="true"
     inkscape:window-height="1004"
     inkscape:window-maximized="1"
     inkscape:window-width="1920"
     inkscape:window-x="0"
     inkscape:window-y="0"
     inkscape:zoom="45.254834">
    <inkscape:grid
       empspacing="2"
       enabled="true"
       id="grid4866"
       originx="140px"
       originy="140px"
       snapvisiblegridlinesonly="true"
       spacingx="1px"
       spacingy="1px"
       type="xygrid"
       visible="true" />
    <inkscape:grid
       color="#000000"
       empcolor="#000000"
       empopacity="0"
       empspacing="4"
       enabled="true"
       id="grid5968"
       opacity="0.1254902"
       originx="140px"
       originy="140px"
       snapvisiblegridlinesonly="true"
       spacingx="0.5px"
       spacingy="0.5px"
       type="xygrid"
       visible="true" />
  </sodipodi:namedview>
  <title
     id="title9167">Gnome Symbolic Icon Theme</title>
  <defs
     id="defs7386" />
  <g
     inkscape:groupmode="layer"
     id="layer9"
     inkscape:label="status"
     style="display:inline"
     transform="translate(-101.0002,-357)">
    <path
       style="fill:#bebebe;fill-opacity:1;stroke:none"
       d="m 106.35843,358.85405 c -1.21334,2e-5 -2.19015,0.97679 -2.19015,2.19013 l 0,1.04834 -0.97794,0 c -1.21333,0 -2.19014,0.97681 -2.19014,2.19014 l 0,4.6772 c 0,1.21334 0.97681,2.19014 2.19014,2.19014 4.76589,0 5.24951,-0.0541 8.97198,-0.0549 0.99982,-0.20355 1.75211,-1.07371 1.75211,-2.13538 l 0,-0.7298 c 0.30738,-9.6e-4 0.95515,-0.005 1.33365,-0.005 0.99982,-0.20355 1.75212,-1.07372 1.75212,-2.13539 l 0,-5.04534 c 0,-1.21335 -0.97682,-2.19017 -2.19014,-2.19015 z m 0,1.75211 8.45163,0 c 0.24267,0 0.43802,0.19535 0.43802,0.43802 l 0,5.04536 c 0,0.24267 -0.19535,0.43803 -0.43802,0.43803 l -0.89563,0 0,-2.24491 c 0,-1.21333 -0.97681,-2.19014 -2.19015,-2.19014 l -5.80389,0 0,-1.04834 c 0,-0.24267 0.19538,-0.43802 0.43804,-0.43802 z m 5.80389,7.63759 0,0.71611 c 0,0.24267 -0.19537,0.43803 -0.43804,0.43803 l -8.53394,0 c -0.24267,0 -0.43802,-0.19535 -0.43802,-0.43803 l 0,-4.6772 c 0,-0.24267 0.19535,-0.43803 0.43802,-0.43803 l 0.97794,0 1.75211,0 5.80389,0 c 0.24267,0 0.43804,0.19536 0.43804,0.43803 l 0,2.24491"
       id="path8297"
       inkscape:connector-curvature="0"
       sodipodi:nodetypes="sscsssscsccssssssssscsscsscssssssccssc" />
  </g>
  <g
     inkscape:groupmode="layer"
     id="layer10"
     inkscape:label="devices"
     style="display:inline"
     transform="translate(-101.0002,-357)" />
  <g
     inkscape:groupmode="layer"
     id="layer11"
     inkscape:label="apps"
     transform="translate(-101.0002,-357)" />
  <g
     inkscape:groupmode="layer"
     id="layer13"
     inkscape:label="places"
     style="display:inline"
     transform="translate(-101.0002,-357)" />
  <g
     inkscape:groupmode="layer"
     id="layer14"
     inkscape:label="mimetypes"
     transform="translate(-101.0002,-357)" />
  <g
     inkscape:groupmode="layer"
     id="layer15"
     inkscape:label="emblems"
     style="display:inline"
     transform="translate(-101.0002,-357)" />
  <g
     inkscape:groupmode="layer"
     id="g71291"
     inkscape:label="emotes"
     style="display:inline"
     transform="translate(-101.0002,-357)" />
  <g
     inkscape:groupmode="layer"
     id="g4953"
     inkscape:label="categories"
     style="display:inline"
     transform="translate(-101.0002,-357)" />
  <g
     inkscape:groupmode="layer"
     id="layer12"
     inkscape:label="actions"
     style="display:inline"
     transform="translate(-101.0002,-357)" />
</svg>
