<?xml version="1.0" encoding="utf-8"?>
<!-- Generator: Adobe Illustrator 17.0.0, SVG Export Plug-In . SVG Version: 6.00 Build 0)  -->
<!DOCTYPE svg PUBLIC "-//W3C//DTD SVG 1.1//EN" "http://www.w3.org/Graphics/SVG/1.1/DTD/svg11.dtd">
<svg version="1.1" id="Layer_1" xmlns="http://www.w3.org/2000/svg" xmlns:xlink="http://www.w3.org/1999/xlink" x="0px" y="0px"
	 width="18px" height="18px" viewBox="-0.5 0.5 18 18" enable-background="new -0.5 0.5 18 18" xml:space="preserve">
<g id="Captions">
</g>
<path d="M1.035,5.414C1.916,5.005,2.367,5.91,2.367,5.91l2.202,3.56l0.443-0.252L3.197,3.056c0,0-0.209-0.958,0.705-1.144
	c1.016-0.219,1.316,0.584,1.316,0.584l1.72,6.015l0.494-0.135L6.71,1.639c0,0-0.062-1.051,0.96-1.134
	c1.022-0.084,1.149,0.948,1.149,0.948L9.5,8.5l0.417,0.042l0.519-6.218c0,0,0.033-1.105,1.127-1.017C12.452,1.377,12.5,2.5,12.5,2.5
	l-0.192,7.307l0.227,0.246l2.533-1.566c0,0,0.796-0.625,1.431,0.014c0.575,0.578-0.079,1.459-0.079,1.459L12.5,14.5v4H4.502v-3.299
	L0.57,6.614C0.57,6.614,0.234,5.804,1.035,5.414z"/>
</svg>
