<?xml version="1.0" encoding="utf-8"?>
<!-- Generator: Adobe Illustrator 16.0.0, SVG Export Plug-In . SVG Version: 6.00 Build 0)  -->
<!DOCTYPE svg PUBLIC "-//W3C//DTD SVG 1.1//EN" "http://www.w3.org/Graphics/SVG/1.1/DTD/svg11.dtd">
<svg version="1.1" id="Google_x2B_" xmlns="http://www.w3.org/2000/svg" xmlns:xlink="http://www.w3.org/1999/xlink" x="0px"
	 y="0px" width="100px" height="100px" viewBox="0 0 100 100" enable-background="new 0 0 100 100" xml:space="preserve">
<path d="M57,50.764v-1.593l-1.931-0.631l-0.455-1.099l0.876-1.851l-1.128-1.126l-1.811,0.919l-1.099-0.455L50.762,43H49.17
	l-0.631,1.931l-1.098,0.455l-1.852-0.875l-1.126,1.126l0.919,1.811l-0.454,1.098L43,49.237v1.595l1.93,0.63l0.454,1.099
	l-0.874,1.851l1.126,1.127l1.811-0.921l1.099,0.457L49.237,57h1.593l0.631-1.931l1.099-0.454l1.85,0.875l1.128-1.127l-0.92-1.812
	l0.456-1.098L57,50.764z M50,52.231c-1.232,0-2.231-1-2.231-2.231c0-1.232,0.999-2.23,2.231-2.23s2.231,0.999,2.231,2.23
	C52.231,51.231,51.232,52.231,50,52.231z"/>
</svg>
